<?xml version="1.0" encoding="utf-8"?>
<!-- Svg Vector Icons : http://www.onlinewebfonts.com/icon -->
<!DOCTYPE svg PUBLIC "-//W3C//DTD SVG 1.1//EN" "http://www.w3.org/Graphics/SVG/1.1/DTD/svg11.dtd">
<svg version="1.1" xmlns="http://www.w3.org/2000/svg" xmlns:xlink="http://www.w3.org/1999/xlink" x="0px" y="0px" viewBox="0 0 1000 1000" enable-background="new 0 0 1000 1000" xml:space="preserve">
<metadata> Svg Vector Icons : http://www.onlinewebfonts.com/icon </metadata>
<g><path d="M710.2,150.2c-77.7,0-140.2,62.4-140.2,140.2c0,51.5,28.5,96.4,70.1,120.4v19.7c0,70.1-70.1,140.2-140.2,140.2c-58,0-104,12-140.2,31.8V270.6c41.6-24.1,70.1-69,70.1-120.4C429.9,72.4,367.5,10,289.8,10C212,10,149.6,72.4,149.6,150.2c0,51.5,28.5,96.4,70.1,120.4v458.8c-41.6,24.1-70.1,69-70.1,120.4c0,77.7,62.4,140.2,140.2,140.2c77.7,0,140.2-62.4,140.2-140.2c0-37.2-14.2-70.1-37.2-95.3c20.8-25.2,53.7-44.9,107.3-44.9c140.2,0,280.3-140.2,280.3-280.3v-19.7c41.6-24.1,70.1-69,70.1-120.4c0-77.7-62.4-140.2-140.2-140.2V150.2z M289.8,80.1c38.3,0,70.1,31.8,70.1,70.1c0,38.3-31.8,70.1-70.1,70.1c-38.3,0-70.1-31.8-70.1-70.1C219.7,111.8,251.4,80.1,289.8,80.1z M289.8,921c-38.3,0-70.1-31.8-70.1-70.1s31.8-70.1,70.1-70.1c38.3,0,70.1,31.8,70.1,70.1S328.1,921,289.8,921z M710.2,360.4c-38.3,0-70.1-31.8-70.1-70.1c0-38.3,31.8-70.1,70.1-70.1s70.1,31.8,70.1,70.1C780.3,328.6,748.6,360.4,710.2,360.4z"/></g>
</svg>