<?xml version="1.0" encoding="iso-8859-1"?>
<!-- Generator: Adobe Illustrator 16.0.0, SVG Export Plug-In . SVG Version: 6.00 Build 0)  -->
<!DOCTYPE svg PUBLIC "-//W3C//DTD SVG 1.1//EN" "http://www.w3.org/Graphics/SVG/1.1/DTD/svg11.dtd">
<svg version="1.1" id="Capa_1" xmlns="http://www.w3.org/2000/svg" xmlns:xlink="http://www.w3.org/1999/xlink" x="0px" y="0px"
	 width="106.06px" height="106.06px" viewBox="0 0 106.06 106.06" style="enable-background:new 0 0 106.06 106.06;"
	 xml:space="preserve">
<g>
	<path d="M15.515,15.512C-5.172,36.199-5.17,69.857,15.517,90.547c20.682,20.685,54.34,20.685,75.028-0.005
		c20.686-20.685,20.684-54.341,0.002-75.023C69.857-5.172,36.199-5.172,15.515,15.512z M84.759,84.758
		c-17.494,17.493-45.963,17.495-63.456,0.003c-17.498-17.498-17.496-45.967,0-63.461C38.795,3.807,67.263,3.805,84.761,21.302
		C102.255,38.795,102.253,67.264,84.759,84.758z M77.018,74.001c0.656,1.521-0.043,3.286-1.563,3.944
		c-1.521,0.659-3.286-0.042-3.944-1.562c-2.894-6.689-9.73-11.013-17.42-11.013c-7.869,0-14.748,4.32-17.523,11.006
		c-0.48,1.152-1.596,1.85-2.771,1.851c-0.385,0-0.773-0.074-1.15-0.23c-1.531-0.637-2.256-2.393-1.619-3.922
		c3.709-8.932,12.764-14.703,23.064-14.703C64.175,59.371,73.175,65.113,77.018,74.001z M29.633,37.667
		c-0.676-1.176-0.27-2.676,0.906-3.351l9.045-5.196c1.176-0.674,2.676-0.268,3.352,0.907c0.676,1.176,0.27,2.676-0.906,3.351
		l-9.045,5.194C31.808,39.247,30.308,38.842,29.633,37.667z M43.668,37.772c1.688,1.689,1.688,4.429,0,6.115
		c-1.688,1.688-4.426,1.688-6.117-0.002c-1.688-1.688-1.688-4.426,0-6.113C39.24,36.083,41.979,36.083,43.668,37.772z
		 M58.369,23.089c0.121-1.35,1.313-2.347,2.662-2.226l10.392,0.934c1.35,0.121,2.348,1.313,2.225,2.664
		c-0.121,1.351-1.312,2.347-2.664,2.225l-10.389-0.933C59.244,25.632,58.246,24.438,58.369,23.089z M69.462,37.701
		c1.688,1.688,1.688,4.426,0,6.113c-1.691,1.69-4.431,1.69-6.117,0.002c-1.688-1.687-1.688-4.426,0-6.115
		C65.033,36.011,67.771,36.011,69.462,37.701z"/>
</g>
<g>
</g>
<g>
</g>
<g>
</g>
<g>
</g>
<g>
</g>
<g>
</g>
<g>
</g>
<g>
</g>
<g>
</g>
<g>
</g>
<g>
</g>
<g>
</g>
<g>
</g>
<g>
</g>
<g>
</g>
</svg>
