<?xml version="1.0" encoding="utf-8"?>
<!-- Generator: Adobe Illustrator 16.0.0, SVG Export Plug-In . SVG Version: 6.00 Build 0)  -->
<!DOCTYPE svg PUBLIC "-//W3C//DTD SVG 1.1//EN" "http://www.w3.org/Graphics/SVG/1.1/DTD/svg11.dtd">
<svg version="1.1" id="Capa_1" xmlns="http://www.w3.org/2000/svg" xmlns:xlink="http://www.w3.org/1999/xlink" x="0px" y="0px"
	 width="548.928px" height="548.929px" viewBox="0 0 548.928 548.929" enable-background="new 0 0 548.928 548.929"
	 xml:space="preserve">
<g>
	<g>
		<path fill="#205081" d="M445.157,385.361c-50.306,33.236-107.283,49.854-170.943,49.854c-63.661,0-120.534-16.615-170.607-49.854
			l-6.065,3.023l-2.02,5.396c7.185,44.016,13.586,76.801,19.198,98.354c4.492,7.859,10.331,14.762,17.516,20.711
			s15.379,10.844,24.59,14.656c9.204,3.813,17.797,6.844,25.765,9.096c7.968,2.252,17.124,4.266,27.454,6.064
			c23.127,3.813,45.753,5.893,67.871,6.234c22.118,0.332,44.799-2.141,68.042-7.422c23.244-5.275,44.519-13.307,63.832-24.076
			c8.085-4.498,14.597-10.846,19.535-19.027c4.938-8.213,8.134-16.053,9.596-23.58c1.457-7.527,3.036-16.945,4.719-28.305
			c1.685-11.328,3.421-19.92,5.222-25.766c0-2.025,0.894-6.17,2.691-12.461c1.793-6.291,2.356-11.34,1.685-15.159
			C452.568,389.291,449.87,386.701,445.157,385.361z"/>
		<path fill="#205081" d="M52.571,181.057c2.356,13.813,5.502,31.946,9.431,54.407c3.923,22.46,6.904,39.303,8.923,50.526
			c0.447,2.014,1.065,5.961,1.854,11.787c0.784,5.846,1.457,10.275,2.02,13.307c0.557,3.028,1.566,6.854,3.035,11.443
			c1.457,4.62,3.366,8.537,5.722,11.787c2.356,3.262,5.221,6.236,8.593,8.936c32.785,25.158,77.02,40.746,132.712,46.812
			c80.386,8.536,148.881-1.341,205.467-29.646c7.411-3.801,13.523-7.289,18.359-10.436c4.828-3.146,9.713-7.632,14.65-13.471
			c4.939-5.826,7.969-12.131,9.095-18.867c19.082-109.579,31.548-183.117,37.388-220.626c1.347-5.159,1.965-11.224,1.854-18.183
			c-0.116-6.958-1.971-12.681-5.557-17.185c-13.478-17.069-37.614-30.747-72.418-41.09C367.01,1.019,291.104-4.587,206,3.718
			c-42.222,4.039-77.363,11.236-105.429,21.555c-6.738,2.473-12.124,4.553-16.169,6.236c-4.039,1.683-9.21,4.21-15.496,7.577
			c-6.292,3.366-11.341,6.738-15.16,10.104c-3.819,3.366-7.356,7.577-10.612,12.632c-3.256,5.055-5.22,10.502-5.894,16.34
			c2.02,16.157,4.492,33.905,7.411,53.207C47.571,150.689,50.215,167.256,52.571,181.057z M332.317,311.253
			c-13.697,17.068-30.767,26.5-51.2,28.287c-20.667,1.799-39.242-4.486-55.747-18.855c-16.506-14.369-25.208-31.773-26.108-52.209
			c-0.673-15.502,3.201-30.037,11.622-43.629c8.421-13.581,19.707-23.513,33.85-29.805c22.008-9.884,44.125-8.421,66.359,4.382
			c22.234,12.791,34.915,31.212,38.062,55.233C351.625,275.324,346.013,294.191,332.317,311.253z M135.938,57.617
			c7.185-3.819,13.354-6.292,18.525-7.405c5.165-1.12,12.57-2.46,22.228-4.039c61.751-10.998,125.307-11.224,190.65-0.686
			c10.997,1.805,18.972,3.213,23.917,4.21c4.938,1.016,11.45,3.488,19.535,7.424c8.084,3.935,14.369,8.923,18.861,14.988
			c-6.513,6.512-14.934,11.738-25.264,15.655c-10.33,3.935-18.471,6.353-24.419,7.252c-5.955,0.894-15.998,2.252-30.146,4.039
			c-49.406,6.292-99.707,6.169-150.907-0.343c-13.477-1.567-23.299-2.858-29.474-3.868c-6.181-1.016-14.431-3.477-24.755-7.405
			c-10.331-3.935-18.862-9.039-25.594-15.331C123.141,66.271,128.747,61.43,135.938,57.617z"/>
		<path fill="#205081" d="M302.506,239.007c-6.176-6.634-13.36-10.618-21.555-11.958c-8.201-1.353-16.334,0-24.419,4.039
			c-8.538,3.813-14.376,10.343-17.516,19.542c-3.146,9.21-3.091,18.421,0.171,27.62c3.25,9.211,9.266,15.723,18.023,19.541
			c11.897,7.186,24.418,6.512,37.559-2.024c13.134-8.524,18.807-19.866,17.008-34.016
			C311.765,253.218,308.681,245.635,302.506,239.007z"/>
	</g>
</g>
</svg>
